<svg width="1920" height="540" viewBox="0 0 1920 540" fill="none" xmlns="http://www.w3.org/2000/svg">
<g clip-path="url(#clip0_78_2936)">
<path d="M0 343.358C65.0261 337.562 101.227 361.817 137.201 356.912C189.132 357.982 198.465 393.963 263.04 406.491C339.28 413.938 338.979 391.243 396.177 431.727C409.424 437.033 415.444 423.345 441.785 427.581C480.32 433.733 467.451 435.83 508.844 438.95C570.559 443.631 534.809 431.46 597.427 429.364C613.007 428.874 632.875 435.562 642.96 436.008C678.709 437.612 671.184 432.306 695.719 450.008C713.029 467.396 749.531 464.409 772.109 462.848C790.172 461.6 813.277 463.161 831.189 464.944C897.42 471.498 926.32 442.785 990.82 455.224C1031.46 466.549 1057.65 465.97 1104.77 460.352C1130.43 454.778 1153.69 448.001 1181.68 448.046C1236.77 448.179 1212.31 433.555 1294.73 435.963C1339.36 437.257 1333.19 414.785 1430.49 439.485C1484.39 453.174 1608.04 433.288 1663.81 436.275C1816.44 450.676 1813.05 427.893 1920 398.555V610.293H0V343.358Z" fill="#1C1C37"/>
<path d="M1799.53 147.301C1809.29 149.838 1819.04 152.329 1828.79 154.865C1833.47 156.067 1838.32 157.357 1841.92 160.516C1846.64 164.611 1848.52 171.018 1850.12 177.026C1842.07 178.672 1837.03 178.138 1825.81 175.157C1833.43 181.965 1835.03 189.93 1832.89 197.094C1830.75 204.259 1822.6 218.766 1819.75 225.663C1814.28 238.746 1814.89 258.414 1814.15 266.557C1813.39 274.968 1812.05 284.001 1814.15 292.144C1819.57 313.147 1829.51 318.399 1836.59 329.212C1843.61 339.936 1838.41 347.01 1833.69 357.512C1827.85 370.551 1829.01 388.973 1825.63 406.373C1823.53 417.097 1819.48 425.373 1817.61 436.141C1816.19 444.374 1816.32 452.918 1818.01 461.106L1791.84 451.938C1801.01 424.305 1810.13 386.659 1810.13 362.007C1810.13 351.95 1801.23 341.538 1794.87 333.617C1792.55 330.724 1787.25 325.117 1785.16 322.047C1785.16 322.047 1754.79 387.727 1749.93 423.416C1749.17 429.111 1752.88 440.503 1753.99 446.154L1713.43 453.496C1714.85 439.568 1722.37 427.153 1728.88 414.738C1740.89 391.643 1749.4 368.681 1754.79 343.229C1756.48 335.13 1757.01 328.054 1752.56 321.068C1748.83 315.239 1742.01 308.609 1736.17 304.826C1732.39 302.379 1729.23 299.442 1726.43 296.104C1726.43 296.104 1713.83 299.975 1695.84 299.665C1664.36 299.086 1653.32 308.207 1626.64 302.912C1626.64 302.912 1626.6 327.253 1628.83 336.332C1630.2 341.894 1632.35 366.279 1632.25 373.086C1632.12 387.816 1631.99 402.59 1631.85 417.319C1631.81 422.526 1631.76 427.865 1633.37 432.805C1637.37 445.086 1651.04 454.342 1649.67 467.157L1624.47 451.582C1623.57 443.885 1622.85 436.097 1621.97 428.354C1621.21 421.679 1614.97 409.665 1609.72 402.234C1605.49 396.182 1608.48 385.947 1608.25 378.517C1607.81 363.698 1597.65 342.516 1591.43 331.169C1591.43 331.169 1585.91 380.474 1584.08 402.546C1582.96 416.34 1582.21 431.559 1590.63 442.505L1564.21 443.306C1564.93 437.254 1570.23 436.32 1570.55 415.583C1570.81 398.407 1562.57 373.398 1562.52 327.476C1562.52 324.672 1562.17 321.513 1560.03 319.688C1558.88 318.709 1551.8 315.55 1550.32 315.15C1539.24 312.346 1517.37 311.144 1515.91 312.569C1504.15 323.827 1483.32 337.222 1469.2 335.931C1455.04 334.641 1441.77 326.141 1434.65 313.859C1427.31 301.088 1426.15 284.535 1415.37 274.477C1407.76 267.403 1396.89 265.089 1386.52 264.466C1376.15 263.843 1365.59 264.599 1355.44 262.33C1349.43 260.995 1342.75 258.68 1337.49 261.885C1334.51 263.709 1332.68 267.002 1329.83 269.005C1325.65 271.942 1319.86 271.63 1315.27 269.45C1310.69 267.27 1311.04 259.793 1306.15 258.414C1298.35 256.234 1293.01 243.863 1296.8 236.787C1299.51 231.714 1304.63 228.288 1309.44 225.129C1315.67 220.99 1320.79 217.03 1326.05 211.734C1333.44 204.259 1344.61 203.458 1350.09 196.339C1359.13 184.679 1360.03 184.635 1366.44 175.335C1366.44 175.335 1350.76 179.25 1344.08 179.562C1331.53 180.14 1322.89 175.201 1321.06 167.058C1317.01 148.636 1328.99 144.497 1328.99 144.497C1325.87 151.128 1324.27 155.221 1324.62 159.404C1324.98 163.587 1328.32 164.566 1332.33 165.723C1333.8 166.168 1347.24 169.194 1348.76 169.194C1359.84 169.416 1359.09 166.658 1370.21 166.881C1370.21 166.881 1354.11 163.587 1349.87 154.865C1345.68 146.144 1329.48 150.504 1329.3 133.373C1329.3 133.373 1332.42 141.783 1336.16 139.736C1339.89 137.689 1340.83 134.129 1338.03 130.08C1335.23 126.03 1331.48 119.845 1340.35 113.927C1340.35 113.927 1334.01 125.852 1343.77 126.965C1353.52 128.122 1346.4 109.21 1355.61 99.7315C1355.61 99.7315 1356.01 118.109 1353.88 126.564C1351.75 135.019 1351.48 145.254 1357.88 151.172C1360.69 153.753 1364.65 156.957 1368.21 158.291C1373.47 160.205 1378.45 164.3 1383.13 161.808C1385.13 160.739 1386.56 157.135 1387.85 154.108C1389.99 149.17 1392.75 147.968 1397.29 145.121C1406.07 139.603 1416.61 131.637 1424.45 124.873C1430.2 119.934 1436.65 114.683 1438.21 107.296C1439.99 98.708 1433.8 90.2533 1429.04 82.911C1424.28 75.5687 1419.87 67.648 1418.48 59.0152C1417.81 54.7433 1408.29 50.6049 1405.8 47.0896C1403.65 44.0192 1420.36 48.6916 1417.64 46.1551C1383.23 13.938 1388.35 9.39915 1388.35 9.39915C1393.11 14.8725 1409.93 33.4285 1411.53 24.5732C1415.77 1.3449 1416.88 -1.50305 1420.13 0.543896C1420.13 0.543896 1418 17.5868 1416.84 24.4397C1415.77 30.714 1418.4 34.1405 1421.51 34.1405C1424.63 34.1405 1427.35 31.9601 1429.04 29.3346C1430.73 26.7091 1432.07 24.4842 1433.27 21.6362C1436.43 14.116 1441.24 6.15075 1448.63 2.72434C1449.61 2.27935 1452.68 1.30038 1452.68 1.30038C1448.99 9.66614 1444.27 17.498 1440.44 25.7746C1436.61 34.0514 1432.29 40.2812 1432.51 49.359C1432.56 50.338 1433.93 63.376 1441.11 45.3096C1442.71 41.2602 1446.72 28.6671 1446.72 28.6671C1447.96 35.3864 1448.68 42.5063 1445.43 48.558C1442.84 53.4084 1440.35 58.7927 1439.19 64.177C1437.68 71.2968 1440.35 76.3697 1443.96 82.733C1444.93 84.4685 1446.09 87.3608 1448.05 86.9159C1450.41 86.382 1458.56 75.7467 1461.63 69.2054C1463.59 65.0225 1463.55 59.9941 1462.88 55.4108C1460.79 40.7263 1456.96 24.6177 1457.49 21.6362C1458.52 16.2964 1464.35 26.0862 1466 31.2925C1467.6 36.4989 1467.73 42.0612 1468.27 47.49C1468.57 50.7384 1470.63 54.1204 1473.79 55.0549C1475.52 55.5443 1487.23 29.1566 1493.69 32.9389C1497.07 34.9414 1483.49 44.7312 1488.21 47.7571C1493.11 50.9165 1502.47 40.1922 1504.33 41.7052C1506.69 43.6632 1498.89 50.0265 1494.63 51.4949C1492.21 52.2959 1490.21 52.9633 1487.77 53.5864C1483.4 54.6543 1478.81 60.4837 1478.11 62.3527C1472.05 78.2387 1465.51 87.1829 1459.23 92.8343C1454.87 96.7947 1449.92 101.333 1449.96 107.207C1459.23 107.608 1473.79 94.8812 1475.16 96.3051C1481.49 102.757 1456.83 108.854 1450.85 113.259C1447.83 115.484 1447.43 116.285 1448.59 117.62C1449.25 118.377 1458.87 114.327 1460.16 115.618C1463.55 119.088 1449.29 123.85 1443.83 126.698C1439.59 128.923 1433 137.066 1428.91 139.557C1417.6 146.456 1411.45 150.46 1400.15 157.313C1392.21 162.118 1395.11 165.99 1395.11 165.99C1396.71 166.702 1403.48 164.477 1404.81 163.409C1407.57 161.14 1411.19 159.849 1414.75 159.849C1418.13 159.849 1421.69 160.828 1424.72 159.316C1428.85 157.224 1433.63 150.639 1437.41 151.128C1439.64 151.394 1440.84 159.805 1440.71 162.03C1440.44 166.746 1438.92 174.533 1438.92 174.533C1456.07 180.007 1474.89 177.738 1491.81 171.731C1508.79 165.723 1524.19 156.156 1539.51 146.766C1547.08 142.094 1555 137.333 1563.81 136.221C1573.65 134.975 1583.49 138.357 1593.39 139.112C1616.04 140.803 1637.37 128.656 1659.87 125.452C1670.41 123.939 1681.09 124.428 1691.75 124.918C1703.4 125.452 1715.03 125.941 1726.69 126.475C1752.75 127.632 1781.24 129.768 1800.25 147.612" fill="#1C1C37"/>
</g>
<defs>
<clipPath id="clip0_78_2936">
<rect width="1920" height="545" fill="white"/>
</clipPath>
</defs>
</svg>
